<svg width="24" height="20" viewBox="0 0 24 20" fill="none" xmlns="http://www.w3.org/2000/svg">
<path d="M12 19.25V17.0312L18.75 10.2812L20.9688 12.5L14.2188 19.25H12ZM0.75 12.6875V10.8125H10.125V12.6875H0.75ZM22.3125 11.1562L20.0938 8.9375L21 8.03125C21.1667 7.86458 21.3854 7.78125 21.6563 7.78125C21.9271 7.78125 22.1458 7.86458 22.3125 8.03125L23.2188 8.9375C23.3854 9.10417 23.4688 9.32292 23.4688 9.59375C23.4688 9.86458 23.3854 10.0833 23.2188 10.25L22.3125 11.1562ZM0.75 7.53125V5.65625H15.4375V7.53125H0.75ZM0.75 2.375V0.5H15.4375V2.375H0.75Z" fill="black" fill-opacity="0.5"/>
</svg>
