<svg width="20" height="22" viewBox="0 0 20 22" fill="none" xmlns="http://www.w3.org/2000/svg">
<path d="M6.52919 16.5125L10 12.9833L13.5 16.5125L14.8709 15.1125L11.4 11.5833L14.8709 8.05417L13.5 6.65417L10 10.1833L6.52919 6.65417L5.12919 8.05417L8.62919 11.5833L5.12919 15.1125L6.52919 16.5125ZM3.61252 21.7333C3.14585 21.7333 2.73752 21.5583 2.38752 21.2083C2.03752 20.8583 1.86252 20.45 1.86252 19.9833V3.35833H0.666687V1.60833H6.15002V0.733334H13.85V1.60833H19.3334V3.35833H18.1375V19.9833C18.1375 20.45 17.9625 20.8583 17.6125 21.2083C17.2625 21.5583 16.8542 21.7333 16.3875 21.7333H3.61252ZM16.3875 3.35833H3.61252V19.9833H16.3875V3.35833Z" fill="black" fill-opacity="0.5"/>
</svg>
